<?xml version="1.0" encoding="utf-8"?>
<svg viewBox="0 0 1024 1024" xmlns="http://www.w3.org/2000/svg">
  <path fill="#BCAB4E" opacity="1.000000" stroke="none" d="M 621.563 279.983 C 621.547 234.865 621.912 191.375 621.425 147.896 C 620.767 89.16 654.44 70.425 702.64 73.669 C 740.064 76.188 763.106 99.43 763.371 137.117 C 764.08 238.215 763.93 339.324 763.348 440.423 C 763.143 476.047 736.809 501.695 701.45 502.792 C 690.631 503.128 679.492 503.614 668.98 501.562 C 636.534 495.228 618.389 470.586 619.574 431.53 C 621.092 381.555 621.579 331.597 621.563 279.983 Z" style="" transform="matrix(1, 0, 0, 1, 1.1368683772161603e-13, 1.4210854715202004e-14)"/>
  <path fill="#BCAB4E" opacity="1.000000" stroke="none" d="M 763.703 782.85 C 763.726 817.648 763.158 850.826 763.902 883.974 C 765.091 936.967 724.251 962.097 674.836 951.664 C 632.316 942.687 619.684 915.643 619.526 878.809 C 619.126 786.384 620.622 693.928 618.625 601.544 C 617.793 563.033 645.005 538.954 678.186 535.396 C 697.146 533.362 716.265 532.875 733.77 542.988 C 753.917 554.625 763.729 572.147 763.731 595.277 C 763.74 657.257 763.713 719.237 763.703 782.85 Z" style="" transform="matrix(1, 0, 0, 1, 1.1368683772161603e-13, 1.4210854715202004e-14)"/>
  <path fill="#BCAB4E" opacity="1.000000" stroke="none" d="M 805.164 332.234 C 805.867 311.064 803.376 291.437 806.795 271.976 C 813.964 231.167 846.976 206.668 889.266 210.764 C 922.848 214.017 952.978 248.672 953.002 284.278 C 953.063 370.256 953.415 456.236 952.919 542.21 C 952.635 591.511 917.486 617.11 866.115 610.873 C 816.669 604.869 805.381 570.133 805.246 534.661 C 804.99 467.73 805.169 400.796 805.164 332.234 Z" style="" transform="matrix(1, 0, 0, 1, 1.1368683772161603e-13, 1.4210854715202004e-14)"/>
  <path fill="#BCAB4E" opacity="1.000000" stroke="none" d="M 255.573 691.894 C 250.473 653.101 250.767 615.773 256.174 578.507 C 259.675 554.369 277.066 539.937 305.607 537.453 C 313.165 536.796 320.818 537.071 328.423 537.131 C 373.291 537.479 393.511 555.458 396.641 600.008 C 398.93 632.583 396.173 665.219 391.057 697.383 C 386.507 725.989 367.86 740.776 338.993 741.138 C 323.83 741.33 308.535 742.689 293.531 738.95 C 267.583 732.485 256.895 719.611 255.573 691.894 Z" style="" transform="matrix(1, 0, 0, 1, 1.1368683772161603e-13, 1.4210854715202004e-14)"/>
  <path fill="#BCAB4E" opacity="1.000000" stroke="none" d="M 394.52 445.954 C 382.688 499.745 324.645 522.56 278.849 493.215 C 261.733 482.249 256.615 464.908 254.643 447.266 C 250.473 409.972 249.824 372.4 258.961 335.563 C 265.25 310.209 277.768 300.832 304.065 299.684 C 312.749 299.305 321.561 300.109 330.122 298.949 C 373.314 293.099 389.353 320.381 394.505 355.195 C 398.895 384.869 397.822 414.759 394.52 445.954 Z" style="" transform="matrix(1, 0, 0, 1, 1.1368683772161603e-13, 1.4210854715202004e-14)"/>
  <path fill="#BCAB4E" opacity="1.000000" stroke="none" d="M 252.549 169.116 C 251.863 152.727 253.837 138.291 257.525 123.96 C 269.658 76.805 336.641 55.817 373.919 88.378 C 386.421 99.298 392.013 115.346 394.481 131.765 C 398.379 157.694 397.852 183.914 396.473 209.914 C 394.063 255.353 372.889 274.253 327.385 273.319 C 316.567 273.097 305.471 272.542 295.05 269.946 C 275.354 265.038 260.933 253.577 256.399 232.456 C 252.022 212.065 252.881 191.357 252.549 169.116 Z" style="" transform="matrix(1, 0, 0, 1, 1.1368683772161603e-13, 1.4210854715202004e-14)"/>
  <path fill="#BCAB4E" opacity="1.000000" stroke="none" d="M 396.121 817.661 C 396.947 844.029 398.851 869.025 395.665 893.885 C 389.161 944.644 351.171 959.509 309.686 951.857 C 271.986 944.904 252.668 920.17 252.787 881.82 C 252.866 855.861 249.707 829.725 255.37 803.912 C 262.108 773.218 275.107 762.475 306.011 762.362 C 314.698 762.329 323.386 762.37 332.072 762.373 C 376.788 762.39 388.536 772.315 396.121 817.661 Z" style="" transform="matrix(1, 0, 0, 1, 1.1368683772161603e-13, 1.4210854715202004e-14)"/>
  <path fill="#BCAB4E" opacity="1.000000" stroke="none" d="M 215.086 540.747 C 214.287 585.45 188.041 613.229 147.347 614.013 C 97.72 614.968 71.998 591.8 69.02 544.863 C 67.605 522.604 67.051 500.692 69.919 478.37 C 76.372 428.178 145.311 410.615 180.026 431.855 C 203.002 445.913 215.16 464.992 215.09 491.888 C 215.049 507.655 215.083 523.418 215.086 540.747 Z" style="" transform="matrix(1, 0, 0, 1, 1.1368683772161603e-13, 1.4210854715202004e-14)"/>
  <path fill="#BCAB4E" opacity="1.000000" stroke="none" d="M 441.325 570.985 C 431.563 533.619 432.855 497.531 443.239 462.023 C 451.658 433.224 496.066 414.54 527.821 425.403 C 557.416 435.527 578.221 453.492 578.915 487.18 C 579.527 516.778 585.217 546.925 572.016 575.459 C 559.533 602.443 529.819 620.526 500.743 615.726 C 474.526 611.397 449.78 602.451 441.325 570.985 Z" style="" transform="matrix(1, 0, 0, 1, 1.1368683772161603e-13, 1.4210854715202004e-14)"/>
  <path fill="#BCAB4E" opacity="1.000000" stroke="none" d="M 915.303 645.672 C 957.449 679.25 969.635 737.376 945.168 783.959 C 928.537 815.623 896.996 831.827 864.052 825.637 C 834.142 820.017 808.293 790.622 805.588 757.19 C 804.233 740.453 805.057 723.493 805.615 706.659 C 807.546 648.351 873.468 622.899 915.303 645.672 Z" style="" transform="matrix(1, 0, 0, 1, 1.1368683772161603e-13, 1.4210854715202004e-14)"/>
  <path fill="#BCAB4E" opacity="1.000000" stroke="none" d="M 213.678 269.203 C 214.252 292.83 215.822 315.123 214.605 337.262 C 212.803 369.976 187.015 395.464 155.24 398.345 C 111.341 402.326 81.911 385.325 72.328 349.994 C 65.105 323.368 64.252 296.229 70.552 269.496 C 79.372 232.059 106.02 210.96 142.321 210.632 C 178.127 210.309 202.539 229.935 213.678 269.203 Z" style="" transform="matrix(1, 0, 0, 1, 1.1368683772161603e-13, 1.4210854715202004e-14)"/>
  <path fill="#BCAB4E" opacity="1.000000" stroke="none" d="M 217.493 711.787 C 217.022 728.47 216.382 743.654 215.911 758.772 C 214.891 791.507 194.784 810.093 168.741 821.063 C 141.54 832.52 114.574 827.05 91.828 805.911 C 71.622 787.135 69.263 762.4 67.348 737.452 C 66.35 724.45 68.163 711.512 70.059 698.584 C 74.328 669.501 90.862 651.728 118.801 644.016 C 168.621 630.267 218.847 662.403 217.493 711.787 Z" style="" transform="matrix(1, 0, 0, 1, 1.1368683772161603e-13, 1.4210854715202004e-14)"/>
  <path fill="#BCAB4E" opacity="1.000000" stroke="none" d="M 577.553 319.075 C 577.557 373.788 547.307 403.005 496.089 398.156 C 470.769 395.76 451.109 381.557 443.181 358.149 C 431.108 322.499 430.6 285.496 444.68 249.697 C 456.847 218.76 485.235 206.676 526.13 213.851 C 552.933 218.554 576.576 245.774 577.43 273.501 C 577.881 288.143 577.536 302.808 577.553 319.075 Z" style="" transform="matrix(1, 0, 0, 1, 1.1368683772161603e-13, 1.4210854715202004e-14)"/>
  <path fill="#BCAB4E" opacity="1.000000" stroke="none" d="M 438.842 58.795 C 447.136 23.584 479.011 -0.867 511.396 1.851 C 545.765 4.734 574.061 32.902 578.069 66.756 C 580.128 84.158 580.039 101.499 579.506 118.844 C 578.35 156.383 553.904 181.384 517.437 183.221 C 471.755 185.526 444.704 165.827 438.002 126.638 C 434.18 104.301 435.754 82.305 438.842 58.795 Z" style="" transform="matrix(1, 0, 0, 1, 1.1368683772161603e-13, 1.4210854715202004e-14)"/>
  <path fill="#BCAB4E" opacity="1.000000" stroke="none" d="M 579.871 758.293 C 569.841 819.936 507.075 826.506 468.698 809.667 C 446.834 800.074 439.678 777.538 436.707 755.765 C 433.562 732.714 433.947 709.347 439.975 686.232 C 446.423 661.511 462.739 649.093 486.544 644.33 C 526.913 636.254 555.591 646.645 571.931 674.977 C 578.452 686.28 579.305 698.754 579.771 711.179 C 580.342 726.38 579.922 741.62 579.871 758.293 Z" style="" transform="matrix(1, 0, 0, 1, 1.1368683772161603e-13, 1.4210854715202004e-14)"/>
  <path fill="#BCAB4E" opacity="1.000000" stroke="none" d="M 579.582 960.506 C 571.251 999.664 531.514 1029.738 496.571 1020.757 C 465.799 1012.848 441.122 997.091 437.672 960.009 C 435.49 936.561 435.522 913.511 442.254 890.884 C 456.538 842.881 515.074 827.315 554.228 858.67 C 574.115 874.598 580 893.765 580.462 916.694 C 580.748 930.81 580.016 944.945 579.582 960.506 Z" style="" transform="matrix(1, 0, 0, 1, 1.1368683772161603e-13, 1.4210854715202004e-14)"/>
</svg>
